<?xml version="1.0" standalone="no"?>
<!DOCTYPE svg PUBLIC "-//W3C//DTD SVG 20010904//EN"
 "http://www.w3.org/TR/2001/REC-SVG-20010904/DTD/svg10.dtd">
<svg version="1.0" xmlns="http://www.w3.org/2000/svg"
 width="500.000000pt" height="500.000000pt" viewBox="0 0 500.000000 500.000000"
 preserveAspectRatio="xMidYMid meet">
<metadata>
Created by potrace 1.14, written by Peter Selinger 2001-2017
</metadata>
<g transform="translate(0.000000,500.000000) scale(0.100000,-0.100000)"
fill="#000000" stroke="none">
<path d="M2358 4354 c-2 -1 -21 -4 -43 -7 -22 -3 -56 -9 -75 -12 -48 -8 -188
-54 -225 -73 -16 -9 -32 -16 -35 -17 -3 0 -35 -19 -71 -42 -117 -73 -210 -181
-225 -258 l-7 -39 -18 22 c-17 22 -18 22 -32 3 -10 -15 -23 -20 -50 -18 -47 4
-70 -9 -43 -24 10 -6 32 -23 48 -38 l31 -27 -28 -44 c-22 -36 -70 -154 -73
-183 -2 -14 -14 -102 -18 -127 -5 -33 -16 -253 -16 -310 0 -59 -5 -78 -26 -84
-69 -22 -122 -132 -119 -241 5 -136 74 -225 196 -255 37 -9 47 -15 48 -33 4
-46 37 -175 65 -257 48 -136 124 -265 196 -333 l30 -29 -37 -37 c-36 -36 -50
-74 -65 -176 -2 -16 -20 -75 -40 -130 -19 -55 -37 -122 -40 -148 -3 -39 -10
-53 -32 -70 -100 -78 -234 -249 -234 -300 0 -64 70 -184 155 -265 184 -176
421 -288 710 -337 107 -18 384 -14 485 8 8 2 31 7 50 11 346 76 689 322 755
540 12 40 12 47 -9 89 -13 24 -36 62 -51 83 -32 44 -138 151 -172 175 -15 11
-24 30 -28 65 -8 62 -30 137 -61 214 -13 32 -23 70 -22 82 3 46 -31 136 -62
161 -36 31 -37 40 -7 64 58 48 143 189 190 314 23 60 63 213 70 264 4 31 16
45 40 45 30 1 98 32 129 61 51 48 72 106 72 204 0 74 -3 97 -22 132 -26 49
-63 89 -92 98 -23 7 -22 1 -25 90 -8 224 -19 337 -50 480 -12 57 -54 136 -93
173 l-39 38 38 58 c58 90 93 189 94 267 0 121 -38 147 -121 84 -25 -19 -50
-35 -55 -35 -5 0 -9 13 -9 30 0 57 -58 71 -190 45 -121 -23 -235 -22 -330 4
-41 11 -93 22 -115 25 -22 4 -53 9 -68 12 -27 6 -224 13 -229 8z"/>
</g>
</svg>
